<svg height="512pt" viewBox="-27 0 512 512" width="512pt" xmlns="http://www.w3.org/2000/svg" fill="#FFF"><path d="m448 370h-17.304688c-2.300781-39.5-18.148437-75.417969-42.960937-103.171875.132813-.644531.203125-1.316406.203125-2.003906v-134.824219c0-5.523438-4.476562-10-10-10h-41.9375v-62c-.007812 0-.015625.003906-.023438.003906 0-2.605468-.992187-5.160156-2.90625-7.074218l-48-48c-1.875-1.875-4.417968-2.929688-7.070312-2.929688h-168c-2.652344 0-5.195312 1.054688-7.070312 2.929688l-48 48c-1.910157 1.910156-2.902344 4.46875-2.90625 7.066406-.007813 0-.015626.003906-.023438.003906v62h-42c-5.523438 0-10 4.476562-10 10v328.5625c0 2.652344 1.054688 5.195312 2.929688 7.070312l43.4375 43.4375c1.875 1.875 4.417968 2.929688 7.070312 2.929688h281.058594c2.652344 0 5.195312-1.054688 7.074218-2.929688l43.4375-43.4375c1.875-1.875 2.929688-4.417968 2.929688-7.070312v-24.5625h16.0625c29.773438 0 54-24.226562 54-54 0-5.523438-4.476562-10-10-10zm-220.269531-34.269531c0-5.101563 1.097656-10.015625 3.261719-14.601563.011718-.027344.023437-.054687.035156-.078125.605468-1.269531 1.308594-2.539062 2.101562-3.773437.207032-.324219.398438-.660156.566406-1.007813 3.6875-7.554687 5.351563-14.90625 5.871094-21.5.265625.597657.519532 1.226563.761719 1.882813 1.859375 5.03125 7.355469 7.699218 12.460937 6.054687 5.101563-1.652343 7.996094-7.03125 6.554688-12.195312-.75-3.011719 2.203125-12.066407 8.722656-19.726563 2.757813 13.4375 10.195313 25.695313 17.03125 36.957032 1.605469 2.648437 3.269532 5.386718 4.808594 8.035156.125.214844.257812.421875.394531.628906 1.285157 1.871094 2.375 3.863281 3.25 5.917969.007813.015625.015625.035156.023438.050781 1.789062 4.226562 2.695312 8.71875 2.695312 13.355469 0 18.894531-15.375 34.269531-34.269531 34.269531s-34.269531-15.375-34.269531-34.269531zm84.234375-21.214844c-.023438-.046875-.042969-.097656-.0625-.144531-1.332032-3.105469-2.972656-6.113282-4.878906-8.941406-1.582032-2.714844-3.230469-5.433594-4.828126-8.0625-9.160156-15.089844-17.808593-29.339844-14.5-43.605469.839844-3.613281-.390624-7.398438-3.199218-9.824219-2.804688-2.425781-6.726563-3.101562-10.183594-1.75-12.976562 5.078125-23.433594 16.058594-29.4375 27.566406-6.257812-4.882812-12.789062-7.023437-17.160156-7.496094-3.546875-.378906-7.03125 1.109376-9.140625 3.976563-2.113281 2.867187-2.554688 6.605469-1.140625 9.871094.253906.609375 6.046875 14.988281-1.484375 30.921875-1.082031 1.730468-2.058594 3.507812-2.917969 5.300781-.097656.1875-.183594.375-.269531.566406-3.339844 7.191407-5.03125 14.871094-5.03125 22.835938 0 12.988281 4.589843 24.917969 12.226562 34.273437h-108.628906c5.167969-78.066406 70.324219-140 149.671875-140s144.503906 61.933594 149.667969 140h-106.625c7.636719-9.351562 12.226562-21.285156 12.226562-34.273437 0-7.351563-1.449219-14.492188-4.304687-21.214844zm-42.039063-104.28125c-2.957031-.15625-5.933593-.234375-8.925781-.234375-2.996094 0-5.96875.078125-8.925781.234375v-6.984375c0-4.921875 4.003906-8.925781 8.925781-8.925781s8.925781 4.003906 8.925781 8.925781zm-149.925781-90.234375v-52h148v52zm168-52h28v52h-28zm-173.855469-48h159.714844l28 28h-215.714844zm-42.144531 48h28v52h-28zm332 346h-102c-5.523438 0-10 4.476562-10 10s4.476562 10 10 10h65.9375v20.417969l-37.582031 37.582031h-272.773438l-37.582031-37.582031v-314.417969h347.9375v107.953125c-22.113281-17.941406-48.796875-30.449219-78.011719-35.480469v-9.222656c0-15.949219-12.976562-28.925781-28.925781-28.925781s-28.925781 12.976562-28.925781 28.925781v9.222656c-76.804688 13.222656-136.144531 78.144532-140.773438 157.527344h-15.300781c-5.523438 0-10 4.476562-10 10 0 29.773438 24.226562 54 54 54h102c5.523438 0 10-4.476562 10-10s-4.476562-10-10-10h-102c-15.269531 0-28.21875-10.117188-32.5-24h349c-4.28125 13.882812-17.230469 24-32.5 24zm0 0"/><path d="m262 414c-2.628906 0-5.210938 1.070312-7.070312 2.929688-1.859376 1.859374-2.929688 4.441406-2.929688 7.070312s1.070312 5.210938 2.929688 7.070312c1.859374 1.859376 4.441406 2.929688 7.070312 2.929688s5.210938-1.070312 7.070312-2.929688c1.859376-1.859374 2.929688-4.441406 2.929688-7.070312s-1.070312-5.210938-2.929688-7.070312c-1.859374-1.859376-4.441406-2.929688-7.070312-2.929688zm0 0"/></svg>
