<?xml version="1.0" encoding="iso-8859-1"?>
<!-- Generator: Adobe Illustrator 19.0.0, SVG Export Plug-In . SVG Version: 6.00 Build 0)  -->
<svg version="1.1" id="Capa_1" xmlns="http://www.w3.org/2000/svg" xmlns:xlink="http://www.w3.org/1999/xlink" x="0px" y="0px"
	 viewBox="0 0 512 512" style="enable-background:new 0 0 512 512;" xml:space="preserve">
<g>
	<g>
		<g>
			<path fill="#17a2b8" d="M492.001,59h-118c-11.046,0-20,8.954-20,20v98h-98c-11.045,0-20,8.954-20,20v98h-98c-11.046,0-20,8.954-20,20v98H20
				c-11.046,0-20,8.954-20,20c0,11.046,8.954,20,20,20h118.001c5.304,0,10.392-2.107,14.142-5.858
				c3.751-3.75,5.858-8.838,5.858-14.142L158,335h98.001c5.304,0,10.392-2.107,14.142-5.858c3.751-3.75,5.858-8.838,5.858-14.142
				L276,217h98c5.305,0,10.392-2.107,14.142-5.858c3.751-3.75,5.858-8.838,5.858-14.142l-0.001-98H492c11.046,0,20-8.954,20-20
				S503.046,59,492.001,59z"/>
		</g>
	</g>
</g>
</svg>
