<svg fill="#17a2b8" height="480pt" viewBox="0 -28 480 480" width="480pt" xmlns="http://www.w3.org/2000/svg"><path d="m328 136c-22.089844 0-40-17.910156-40-40s17.910156-40 40-40 40 17.910156 40 40c-.027344 22.082031-17.917969 39.972656-40 40zm0-64c-13.253906 0-24 10.746094-24 24s10.746094 24 24 24 24-10.746094 24-24-10.746094-24-24-24zm0 0"/><path d="m152 80c-35.347656 0-64 28.652344-64 64s28.652344 64 64 64 64-28.652344 64-64c-.039062-35.328125-28.671875-63.960938-64-64zm0 112c-26.507812 0-48-21.492188-48-48s21.492188-48 48-48 48 21.492188 48 48c-.027344 26.5-21.5 47.972656-48 48zm0 0"/><path d="m464 296v-256c-.027344-22.082031-17.917969-39.9726562-40-40h-368c-22.082031.0273438-39.972656 17.917969-40 40v192.886719c-10.257812 10.433593-16.00390625 24.480469-16 39.113281v152h304v-48h136c22.082031-.027344 39.972656-17.917969 40-40v-40zm-408-280h368c13.253906 0 24 10.746094 24 24v256h-144v-16h128v-248h-384v184.640625c-5.546875.796875-10.941406 2.425781-16 4.839844v-181.480469c0-13.253906 10.746094-24 24-24zm247.359375 248c-3.972656-27.527344-27.546875-47.96875-55.359375-48h-184v-168h352v216zm-15.359375 144h-48v-120h-16v120h-144v-120h-16v120h-48v-136c.027344-22.082031 17.917969-39.972656 40-40h192c22.082031.027344 39.972656 17.917969 40 40zm176-72c0 13.253906-10.746094 24-24 24h-136v-48h160zm0 0"/><path d="m360 144h-64c-22.082031.027344-39.972656 17.917969-40 40v24h16v-24c0-13.253906 10.746094-24 24-24h64c13.253906 0 24 10.746094 24 24v48h16v-48c-.027344-22.082031-17.917969-39.972656-40-40zm0 0"/></svg>
